<svg width="65" height="65" viewBox="0 0 65 65" fill="none" xmlns="http://www.w3.org/2000/svg">
<circle cx="32.5" cy="32.5" r="32.5" fill="url(#paint0_linear_1_22)"/>
<path d="M10.8571 46.4765C12.4571 48.5765 15.7571 48.6765 18.2571 46.7765C19.2571 45.9765 21.0571 43.8765 21.0571 39.5765V26.2765L40.0571 22.6765V31.0765C40.0571 35.0765 37.6571 34.7764 36.8571 34.8764C36 35 34.6942 35.4517 33.7571 36.0765C31.2571 37.9765 30.5571 41.1765 32.1571 43.2765C33.7571 45.3765 37.0571 45.4765 39.5571 43.5765C40.8571 42.5765 42.0571 40.7764 42.0571 37.8764V15.5765C42.0571 14.3765 41.0571 13.7765 39.9571 14.0765L20.7571 17.6765C19.4571 18.0765 18.9571 19.3764 18.9571 20.4764V33.4765C18.9571 37.4765 16.2571 37.8765 15.4571 37.9765C14.5 38.0961 13.3181 38.5307 12.4571 39.1764C9.95712 41.1764 9.25712 44.3765 10.8571 46.4765Z" fill="white"/>
<path d="M56.0896 33.0877H53.6599C53.2456 33.0877 52.9099 32.7519 52.9099 32.3377V29.9106C52.9099 29.4077 52.5041 29 52.0012 29C51.4983 29 51.0928 29.4077 51.0928 29.9109V32.3399C51.0928 32.7541 50.757 33.0899 50.3428 33.0899H47.9115C47.4086 33.0899 46.9998 33.4977 47 34.0008C46.9998 34.2521 47.1013 34.4825 47.2659 34.6471C47.4306 34.8121 47.658 34.9162 47.9091 34.9162H50.3428C50.757 34.9162 51.0928 35.252 51.0928 35.6662V38.0909C51.0928 38.3425 51.1926 38.5702 51.3573 38.7346C51.5221 38.8993 51.7488 39.0013 52.0003 39.0013C52.503 39.0013 52.9099 38.5936 52.9099 38.0909V35.666C52.9099 35.2518 53.2456 34.916 53.6599 34.916H56.0896C56.5925 34.916 57.0002 34.5048 57 34.0019C56.9998 33.4992 56.592 33.0877 56.0896 33.0877Z" fill="white"/>
<defs>
<linearGradient id="paint0_linear_1_22" x1="32.5" y1="0" x2="32.5" y2="65" gradientUnits="userSpaceOnUse">
<stop stop-color="#D62828"/>
<stop offset="1" stop-color="#F77F00"/>
</linearGradient>
</defs>
</svg>
