<svg width="100" height="100" viewBox="0 0 100 100" fill="none" xmlns="http://www.w3.org/2000/svg">
  <g class="whole-menu">
    <path class="bot-bar" fill-rule="evenodd" clip-rule="evenodd" d="M11.6667 75C11.6667 72.2386 13.9052 70 16.6667 70H83.3333C86.0948 70 88.3333 72.2386 88.3333 75C88.3333 77.7614 86.0948 80 83.3333 80H16.6667C13.9052 80 11.6667 77.7614 11.6667 75Z" fill="url(#paint0_linear_8_2)"/>
    <path class="mid-bar" fill-rule="evenodd" clip-rule="evenodd" d="M11.6667 50C11.6667 47.2386 13.9052 45 16.6667 45H83.3333C86.0948 45 88.3333 47.2386 88.3333 50C88.3333 52.7614 86.0948 55 83.3333 55H16.6667C13.9052 55 11.6667 52.7614 11.6667 50Z" fill="url(#paint1_linear_8_2)"/>
    <path class="top-bar" fill-rule="evenodd" clip-rule="evenodd" d="M11.6667 25C11.6667 22.2386 13.9052 20 16.6667 20H83.2917C86.0531 20 88.2917 22.2386 88.2917 25C88.2917 27.7614 86.0531 30 83.2917 30H16.6667C13.9052 30 11.6667 27.7614 11.6667 25Z" fill="url(#paint2_linear_8_2)"/>
  </g>
  <defs>
    <linearGradient id="paint0_linear_8_2" x1="49.9997" y1="79.1875" x2="49.9997" y2="20.8125" gradientUnits="userSpaceOnUse">
      <stop stop-color="#F77F00"/>
      <stop offset="1" stop-color="#D62828"/>
    </linearGradient>
    <linearGradient id="paint1_linear_8_2" x1="50.0006" y1="79.1875" x2="50.0006" y2="20.8125" gradientUnits="userSpaceOnUse">
      <stop stop-color="#F77F00"/>
      <stop offset="1" stop-color="#D62828"/>
    </linearGradient>
    <linearGradient id="paint2_linear_8_2" x1="49.9785" y1="79.1875" x2="49.9785" y2="20.8125" gradientUnits="userSpaceOnUse">
      <stop stop-color="#F77F00"/>
      <stop offset="1" stop-color="#D62828"/>
    </linearGradient>

    <linearGradient id="paint0_bot_open" x1="88.3334" y1="75.0002" x2="11.6669" y2="75.0001" gradientUnits="userSpaceOnUse">
      <stop stop-color="#F77F00"/>
      <stop offset="1" stop-color="#D62828"/>
    </linearGradient>
    <linearGradient id="paint2_top_open" x1="88.2917" y1="25.0002" x2="11.6669" y2="25.0001" gradientUnits="userSpaceOnUse">
      <stop stop-color="#F77F00"/>
      <stop offset="1" stop-color="#D62828"/>
    </linearGradient>

    <style id="style1">
      .top-bar {
        transform-origin: 17% 28%;
      }
      .mid-bar {
        transform-origin: center center;
      }
      .bot-bar {
        transform-origin: 17% 72%;
      }

      .open .top-bar {
        transform: rotate(38deg) scaleX(1.2);
        fill: url(#paint2_top_open);
      }
      .open .mid-bar {
        transform: scale(0);
      }
      .open .bot-bar {
        transform: rotate(-38deg) scaleX(1.2);
        fill: url(#paint0_bot_open);
      }

      .whole-menu {
        transform-origin: center center;
      }
      .open .whole-menu {
        transform: scaleX(0.9);
      }
    </style>
  </defs>
</svg>
