<svg width="90" height="120" viewBox="0 0 90 120" fill="none" xmlns="http://www.w3.org/2000/svg">
<path fill-rule="evenodd" clip-rule="evenodd" d="M55.7822 108.001C67.7178 108.001 79.8673 98.3857 79.8673 84.3827C79.8673 64.7786 68.978 61.1379 57.0425 61.1379C43.1796 61.1379 35.618 76.9227 35.618 87.9302C35.618 98.9376 43.8467 108.001 55.7822 108.001ZM62.8219 98.159C63.1232 98.0342 63.5528 97.8501 64.0714 97.6053C65.4045 96.9781 66.6996 96.2462 67.9467 95.4153C70.7829 93.5116 74.0123 90.5425 74.7228 86.502C75.3671 82.8383 73.1888 79.671 70.4643 79.1919C68.3136 78.8136 66.351 79.8061 64.9513 81.6099C64.2519 79.4369 62.7446 77.8343 60.5939 77.4561C57.8685 76.9768 54.7412 79.2111 54.0971 82.8737C53.3866 86.9142 55.4085 90.8057 57.4254 93.5661C58.5901 95.1473 59.8896 96.5958 61.3069 97.8926C61.4348 98.0094 61.5645 98.1239 61.6959 98.236C61.7852 98.3112 61.8902 98.3607 62.002 98.3804C62.1139 98.4001 62.2294 98.3893 62.3391 98.3491L62.3409 98.3494C62.5015 98.2882 62.6625 98.2248 62.8219 98.159Z" fill="white"/>
<path fill-rule="evenodd" clip-rule="evenodd" d="M45.2722 61.8826C45.0255 61.547 44.7636 61.2358 44.4866 60.9512C38.792 55.1017 36.6449 55.1017 23.8089 55.1017C16.2042 55.1017 10.1327 63.4374 10.1327 75.1409C10.1327 86.8445 20.7749 97.919 31.0438 97.919C32.2909 97.919 33.4691 97.7645 34.5786 97.475C33.3062 94.5551 32.618 91.3191 32.618 87.9302C32.618 81.8335 34.6845 74.5455 38.6518 68.7179C40.4297 66.1064 42.6409 63.7232 45.2722 61.8826ZM46.7224 64.5314C39.4724 69.7775 35.618 80.0714 35.618 87.9302C35.618 90.9465 36.2359 93.8169 37.3787 96.3947C47.4598 91.1437 50.43 73.6296 46.7224 64.5314Z" fill="white"/>
<rect x="60.4124" y="51.8199" width="15.7283" height="12.4238" transform="rotate(11.1826 60.4124 51.8199)" fill="white"/>
<rect x="23.9472" y="48.3063" width="13.6112" height="10.7515" transform="rotate(9.40715 23.9472 48.3063)" fill="white"/>
<path fill-rule="evenodd" clip-rule="evenodd" d="M63.0492 52.8764C62.6156 55.1129 62.0201 57.2241 61.2977 59.1896L70.4796 61.7372C71.4638 59.1728 72.2538 56.4354 72.8105 53.5637C76.3335 35.3926 68.1866 18.7227 55.8476 16.3305C43.5086 13.9383 30.65 26.7296 27.127 44.9006C26.6994 47.1064 26.429 49.29 26.306 51.4286L34.248 52.8764C34.3149 50.8008 34.5511 48.6394 34.9808 46.4233C36.4779 38.7014 39.9046 32.4742 43.8233 28.576C47.7789 24.6411 51.5311 23.6426 54.325 24.1843C57.1188 24.7259 59.7814 27.4304 61.9799 32.5585C64.1579 37.6386 64.1186 44.9006 63.0492 52.8764Z" fill="white"/>
</svg>
