<svg width="52" height="52" viewBox="0 0 52 52" fill="none" xmlns="http://www.w3.org/2000/svg">
<path d="M0 10.4C0 5.49739 -2.38419e-07 3.04608 1.5377 1.52305C3.07537 -1.19209e-07 5.55025 0 10.5 0C15.4498 0 17.9246 -1.19209e-07 19.4623 1.52305C21 3.04608 21 5.49739 21 10.4V41.6C21 46.5026 21 48.9538 19.4623 50.4769C17.9246 52 15.4498 52 10.5 52C5.55025 52 3.07537 52 1.5377 50.4769C-2.38419e-07 48.9538 0 46.5026 0 41.6V10.4Z" fill="white"/>
<path d="M31 10.4C31 5.49739 31 3.04608 32.5377 1.52305C34.0755 -1.19209e-07 36.5503 0 41.5 0C46.4497 0 48.9245 -1.19209e-07 50.4623 1.52305C52 3.04608 52 5.49739 52 10.4V41.6C52 46.5026 52 48.9538 50.4623 50.4769C48.9245 52 46.4497 52 41.5 52C36.5503 52 34.0755 52 32.5377 50.4769C31 48.9538 31 46.5026 31 41.6V10.4Z" fill="white"/>
</svg>
