<svg width="120" height="110" viewBox="0 0 120 110" fill="none" xmlns="http://www.w3.org/2000/svg">
<path fill-rule="evenodd" clip-rule="evenodd" d="M100.5 22.5H51.5V87.5H100.5C106.023 87.5 110.5 83.0228 110.5 77.5V32.5C110.5 26.9772 106.023 22.5 100.5 22.5ZM69.9447 69.6878C71.9534 73.0299 76.9285 73.7277 81.0569 71.2463C84.093 69.4215 85.8257 66.3856 85.7311 63.5775L85.7308 63.5691L85.7295 63.5337L85.726 41.3147C89.06 43.3637 92.9345 44.5086 96.3595 41.9024C91.3279 41.9278 86.7827 38.6404 84.0101 34.5997C83.2917 33.5529 81.5729 34.0334 81.5729 35.303V58.0819C79.264 57.2849 76.3586 57.5955 73.7828 59.1436C69.6544 61.625 67.936 66.3457 69.9447 69.6878Z" fill="white"/>
<path fill-rule="evenodd" clip-rule="evenodd" d="M47.5 26.743V48.8343C45.5914 46.2077 42.4952 44.5 39 44.5C33.201 44.5 28.5 49.201 28.5 55C28.5 60.799 33.201 65.5 39 65.5C42.4952 65.5 45.5914 63.7923 47.5 61.1657V83.257C44.8084 84.0655 41.9549 84.5 39 84.5C22.7076 84.5 9.5 71.2924 9.5 55C9.5 38.7076 22.7076 25.5 39 25.5C41.9549 25.5 44.8084 25.9345 47.5 26.743Z" fill="white"/>
</svg>
