<svg width="120" height="120" viewBox="0 0 120 120" fill="none" xmlns="http://www.w3.org/2000/svg">
<path fill-rule="evenodd" clip-rule="evenodd" d="M50.4914 42.0568C51.1513 38.6406 54.4751 36.3832 57.9095 37.0465L58.5094 33.9409L59.2216 31.1893C59.2557 31.0853 59.2904 30.9817 59.3259 30.8786C62.8737 20.5556 73.4998 14.2854 84.4728 16.4048C96.493 18.7264 104.378 30.2361 102.038 42.3483L101.438 45.454C104.874 46.1175 107.117 49.4501 106.457 52.8664L99.8114 87.2735C99.1516 90.6897 95.829 92.9474 92.3933 92.2838L51.72 84.4279C51.6647 84.2402 51.6035 84.0684 51.5456 83.912C51.5389 83.8939 51.532 83.8754 51.5249 83.8566C51.5165 83.8342 51.5078 83.8113 51.4989 83.7878L51.7411 83.7007L51.8371 83.6488C51.8876 83.6281 51.957 83.6003 52.0431 83.5667C52.0622 83.5592 52.0822 83.5514 52.1029 83.5434C52.3451 83.4495 52.6632 83.3305 52.9914 83.2139L53.0034 83.2096L53.4158 83.0592L54.5334 83.3654L54.5403 83.3672C55.5726 83.6447 56.5595 83.8986 57.3585 83.9467C57.8082 83.9737 58.4703 83.9594 59.174 83.6711C59.949 83.3536 60.4473 82.8414 60.7562 82.4168L60.7993 82.3576L60.8395 82.2962C60.9897 82.0671 61.1176 81.7955 61.1589 81.7078L61.1654 81.694C61.2387 81.5391 61.3236 81.3518 61.4131 81.1493C61.4396 81.0893 61.467 81.0269 61.495 80.9625C61.6087 81.0253 61.7173 81.0832 61.8207 81.1359L61.8276 81.1394C62.1377 81.2976 62.9042 81.6887 63.8245 81.6925C64.2986 81.6949 64.7286 81.5896 64.8725 81.5544L64.8838 81.5516C65.1217 81.4935 65.3746 81.4194 65.6138 81.3441C66.098 81.1917 66.6573 80.9933 67.1864 80.7922C67.7145 80.5915 68.2559 80.3716 68.7012 80.1708C68.9189 80.0727 69.1546 79.9608 69.3685 79.8445C69.473 79.7876 69.6144 79.707 69.7627 79.607L69.7692 79.6026C69.8591 79.5421 70.2148 79.3026 70.53 78.8988L70.5714 78.8458L70.6104 78.7909C70.8416 78.4656 70.9997 78.0917 71.0368 78.004L71.0422 77.9911C71.1182 77.8143 71.1996 77.6095 71.2798 77.3993C71.3029 77.339 71.3264 77.2766 71.3504 77.2123C71.6616 77.3147 71.992 77.3935 72.3349 77.4295C73.0988 77.5097 73.7582 77.3831 74.2762 77.242C74.7267 77.1193 75.2349 76.9361 75.7174 76.7623L75.7952 76.7343L75.8188 76.7257C76.3489 76.5352 76.8742 76.3357 77.3007 76.1652C77.6062 76.043 78.1527 75.8238 78.4961 75.62L78.5056 75.6143C78.8379 75.4153 79.0722 75.1834 79.1177 75.1383L79.1228 75.1333C79.2109 75.0469 79.2886 74.9628 79.3458 74.8991C79.4633 74.7685 79.5909 74.6168 79.715 74.4655C79.9681 74.1569 80.2878 73.7508 80.6413 73.2929C81.3525 72.3719 82.2524 71.1747 83.1362 69.9789C84.02 68.7832 84.8995 67.5731 85.569 66.6259C85.9017 66.1552 86.1951 65.7318 86.4144 65.401C86.5218 65.239 86.6293 65.0724 86.7197 64.921C86.7635 64.8476 86.8224 64.7461 86.8804 64.6327L86.8832 64.6273C86.9098 64.5762 87.0791 64.2521 87.1695 63.834C87.2729 63.3563 87.2631 62.9226 87.2377 62.6333C87.2121 62.3419 87.147 61.9318 86.9779 61.5028L86.9646 61.4691L86.9505 61.4357C86.5602 60.5118 85.8518 59.9468 85.5013 59.6901C85.061 59.3678 84.5698 59.0998 84.1011 58.8807C83.1556 58.4389 82.0118 58.0623 80.853 57.813C78.263 57.2558 75.6811 57.3831 73.0693 58.1717C69.0755 59.3781 58.4513 63.2068 48.3254 67.0427L48.3213 67.0269L45.4639 68.0865L50.4914 42.0568ZM48.2407 83.7231C45.1633 82.8 43.2268 79.6687 43.8458 76.4639L44.7982 71.533L46.2421 70.9976C46.2434 71.0003 46.2688 70.994 46.3158 70.9792L46.3242 70.9765C46.6162 70.8836 47.6586 70.5021 49 69.9953L49.0617 69.9719L49.0749 69.9669C59.3089 66.0859 70.0168 62.2276 73.9368 61.0435C76.087 60.3943 78.153 60.3008 80.2221 60.7459C82.154 61.1616 83.9258 61.9851 84.1869 62.6032C84.2487 62.7599 84.2744 63.0284 84.2373 63.1998C84.1385 63.6567 77.3907 72.7852 76.9647 73.0403C76.7725 73.1544 75.803 73.5435 74.8042 73.9025L74.7788 73.9117C73.6758 74.3088 73.1492 74.4985 72.6482 74.4459C72.5456 74.4351 72.444 74.4141 72.3387 74.3827L72.336 74.3819C71.9726 74.2728 71.5652 74.039 70.9192 73.6683L70.9083 73.6621C70.2694 73.2975 69.6957 73.0187 69.6539 73.0456C69.6098 73.0839 69.2938 73.9364 68.966 74.9538C68.8602 75.2705 68.7525 75.5797 68.6513 75.8598C68.428 76.4773 68.236 76.9531 68.1651 77.053C67.9334 77.3498 64.3867 78.7028 63.8386 78.6925C63.638 78.6929 63.3092 78.5514 62.6636 78.1766L62.6585 78.1736C62.4194 78.0347 62.1369 77.8639 61.8016 77.6565C60.8951 77.0909 60.1085 76.6347 60.0643 76.6731C60.0226 76.7 59.6584 77.5541 59.2482 78.5657C58.838 79.5773 58.4197 80.5155 58.3304 80.6517C58.007 81.0962 57.5464 81.0688 55.3191 80.4701L53.2861 79.9132L51.9873 80.3869C51.2746 80.6401 50.6076 80.903 50.5128 80.9544L47.4655 82.0498C47.5894 82.2826 47.7174 82.5206 47.8499 82.7647L48.0031 83.1432L48.0618 83.2863L48.0625 83.2882C48.1266 83.4444 48.1859 83.589 48.2407 83.7231ZM92.7106 40.5467C94.0358 33.6859 89.5415 27.0484 82.6732 25.7218C82.6043 25.7085 82.5354 25.6958 82.4665 25.6836C79.1779 25.1035 75.9655 25.8468 73.3756 27.539C70.5885 29.3489 68.5132 32.2414 67.837 35.7425L67.2372 38.8481L92.1108 43.6524L92.7106 40.5467Z" fill="white"/>
<path d="M47.8499 82.7648C47.8926 82.8732 47.9434 82.9985 48.0032 83.1432L47.8499 82.7648Z" fill="white"/>
<path fill-rule="evenodd" clip-rule="evenodd" d="M84.187 62.6032C83.9259 61.9851 82.154 61.1616 80.2221 60.746C78.153 60.3008 76.0871 60.3943 73.9368 61.0436C70.0073 62.2305 59.2567 66.1048 49 69.9953C47.415 70.5942 46.2474 71.0181 46.2421 70.9976L43.4993 72.0147C43.4374 71.8359 43.2707 71.321 43.0893 70.7267C42.6403 69.3017 42.3472 68.7832 41.8859 68.5742C41.2019 68.275 40.5195 68.7374 38.9933 70.5641L38.2117 71.5652C38.1888 71.5603 37.9302 71.3732 37.6676 71.1493C36.0476 69.8444 34.408 69.0732 31.9904 68.4694C29.879 67.9435 28.4473 67.8148 26.6786 67.9722C21.8429 68.4263 17.3265 71.2205 14.7878 75.3248C13.7052 77.1884 13.2499 78.2603 12.8031 80.2417C12.2537 82.8373 12.2776 84.9944 12.9006 87.4238C13.6055 90.1936 15.0043 92.7421 16.8251 94.5564C18.1355 95.7645 18.8908 96.3824 20.3204 97.2571C21.8161 98.1407 23.1965 98.617 25.4405 99.0281C27.6477 99.4431 28.8402 99.4606 30.8437 99.1026C36.7898 98.0506 41.6635 93.6596 43.1921 87.975L43.5621 86.5961L44.0715 86.6018C44.3551 86.6125 45.3043 86.7103 46.1866 86.81C47.0768 86.924 47.9525 86.9671 48.1458 86.9261C48.609 86.8037 48.8882 86.4159 48.9057 85.8452C48.9086 85.7511 48.9109 85.676 48.9056 85.5988C48.8849 85.2943 48.7464 84.9564 48.0618 83.2863L48.0032 83.1432C47.9434 82.9985 47.8926 82.8732 47.8499 82.7648C47.7174 82.5206 47.5895 82.2826 47.4656 82.0498L50.5128 80.9544C50.6077 80.903 51.2747 80.6401 51.9874 80.3869L53.2862 79.9132L55.3191 80.4701C57.5464 81.0688 58.0071 81.0962 58.3305 80.6517C58.4198 80.5155 58.838 79.5773 59.2483 78.5657C59.6585 77.5541 60.0227 76.7 60.0644 76.6731C60.1086 76.6348 60.8952 77.0909 61.8017 77.6565C63.0468 78.4265 63.5634 78.6931 63.8387 78.6925C64.3867 78.7028 67.9334 77.3498 68.1651 77.053C68.2683 76.9078 68.6269 75.9688 68.9661 74.9538C69.2938 73.9364 69.6098 73.0839 69.654 73.0456C69.6957 73.0187 70.2694 73.2975 70.9084 73.6621L70.9192 73.6683C71.7542 74.1475 72.1905 74.3978 72.6483 74.4459C73.1492 74.4985 73.6759 74.3089 74.7788 73.9117L74.8043 73.9025C75.8031 73.5436 76.7726 73.1544 76.9647 73.0403C77.3907 72.7853 84.1386 63.6567 84.2374 63.1998C84.2745 63.0285 84.2488 62.7599 84.187 62.6032ZM24.0943 88.493C24.516 88.3685 25.3365 87.6723 25.6241 87.1723C26.7613 85.289 25.707 82.8624 23.535 82.3952C22.2059 82.1092 20.8414 82.7533 19.9861 83.7051C19.5891 84.1577 19.5643 85.6534 19.7469 86.3024C19.936 86.9767 20.4811 87.7754 20.9918 88.1244C21.2096 88.2789 21.4005 88.3917 21.4169 88.3713C21.8442 88.6666 23.0135 88.9269 24.0943 88.493Z" fill="white"/>
</svg>
