<svg width="120" height="120" viewBox="0 0 120 120" fill="none" xmlns="http://www.w3.org/2000/svg">
<path fill-rule="evenodd" clip-rule="evenodd" d="M27.6261 77.4584L22 98L43.0213 92.4876C48.8134 95.6459 55.3342 97.3107 61.9704 97.3134H61.9876C83.8427 97.3134 101.633 79.5279 101.643 57.6718C101.646 47.0792 97.5267 37.1194 90.039 29.6263C82.5513 22.1332 72.5953 18.0054 61.9881 18C40.1298 18 22.3422 35.7822 22.3331 57.64C22.3247 64.5965 24.1504 71.4323 27.6261 77.4584ZM63.2614 57.8011C63.8954 56.2998 64.6592 55.1349 65.5527 54.3063C66.4486 53.4623 67.4949 52.7283 68.6917 52.1043C69.6445 51.6171 70.5032 51.1076 71.2676 50.5758C72.0481 50.0306 72.6926 49.4171 73.2012 48.7353C73.7098 48.0536 74.0363 47.241 74.1807 46.2978C74.3203 45.3855 74.2526 44.5522 73.9777 43.798C73.7028 43.0438 73.26 42.4301 72.6494 41.9569C72.0547 41.4702 71.3555 41.1654 70.5519 41.0424C69.7482 40.9194 68.9603 41.0125 68.1881 41.3216C67.4295 41.6328 66.7663 42.1405 66.1985 42.8449C66.0088 43.0824 65.8411 43.3429 65.6954 43.6265C65.1951 44.6002 64.2317 45.3687 63.1495 45.2031L57.705 44.3699C56.6035 44.2013 55.8403 43.1607 56.1197 42.0819C56.7206 39.7617 57.6494 37.8637 58.906 36.3879C60.5171 34.5139 62.4609 33.2447 64.7373 32.5803C67.016 31.9004 69.4358 31.7564 71.9967 32.1483C74.8027 32.5777 77.2197 33.454 79.2476 34.7771C81.2892 36.1024 82.7887 37.8273 83.7461 39.952C84.7035 42.0766 84.968 44.5383 84.5397 47.3371C84.2581 49.1772 83.7372 50.7592 82.977 52.0829C82.2168 53.4066 81.2635 54.5347 80.1171 55.467C78.9867 56.3859 77.7002 57.186 76.2577 57.8673C75.1319 58.3913 74.1718 58.9723 73.3771 59.6103C72.5961 60.2504 71.9619 61.0237 71.4747 61.9303C71.0651 62.683 70.8133 63.488 70.6309 64.3127C70.3924 65.3912 69.4008 66.1468 68.3089 65.9797L63.5588 65.2528C62.4669 65.0857 61.7097 64.0639 61.8951 62.975C62.1956 61.2106 62.5784 59.4561 63.2614 57.8011ZM60.0149 79.2609C60.9252 80.4908 62.1331 81.2209 63.6386 81.4513C64.6005 81.5985 65.5232 81.4886 66.4068 81.1216C67.3044 80.7567 68.0674 80.1991 68.6958 79.4486C69.3382 78.7003 69.7436 77.8224 69.912 76.815C70.1256 75.3267 69.7691 73.9735 68.8427 72.7555C67.9185 71.5235 66.7385 70.7976 65.3027 70.5779C63.7972 70.3475 62.4262 70.683 61.1897 71.5843C59.9694 72.4738 59.2524 73.6627 59.0389 75.1511C58.7932 76.6632 59.1186 78.0331 60.0149 79.2609ZM49.327 80.1007C48.2626 80.2182 47.3081 79.9318 46.4638 79.2414C45.6292 78.55 45.1562 77.6537 45.0446 76.5525C44.9156 75.4739 45.1834 74.5113 45.8482 73.6647C46.5216 72.8068 47.3906 72.3191 48.4551 72.2016C49.4702 72.0895 50.4049 72.3781 51.2592 73.0674C52.1123 73.7465 52.6033 74.6253 52.7324 75.7039C52.8035 76.4384 52.6899 77.1262 52.3915 77.7674C52.103 78.4076 51.6877 78.938 51.1456 79.3587C50.6133 79.7783 50.0071 80.0256 49.327 80.1007ZM44.7173 63.6588C44.8714 62.4934 45.1754 61.5389 45.6295 60.7952C46.0823 60.0402 46.6575 59.3343 47.3551 58.6774C47.9123 58.1611 48.4014 57.6467 48.8225 57.134C49.2519 56.6091 49.5765 56.0616 49.7963 55.4916C50.0161 54.9215 50.0882 54.2939 50.0125 53.6087C49.9394 52.9459 49.7401 52.3767 49.4146 51.901C49.0891 51.4252 48.6756 51.0786 48.1739 50.8611C47.6806 50.6313 47.1498 50.5478 46.5816 50.6105C46.0134 50.6732 45.4956 50.8839 45.0283 51.2424C44.5706 51.6 44.2138 52.0771 43.958 52.6738C43.873 52.8747 43.8071 53.0876 43.7604 53.3125C43.6 54.0848 43.0874 54.7995 42.3223 54.8839L38.4728 55.3089C37.694 55.3949 36.9843 54.8095 36.9754 54.0046C36.9562 52.2736 37.2374 50.7768 37.8188 49.5141C38.5675 47.9079 39.6535 46.6624 41.0765 45.7776C42.4983 44.8816 44.1146 44.3337 45.9252 44.1338C47.9091 43.9148 49.7113 44.0797 51.3316 44.6285C52.9615 45.1763 54.297 46.1034 55.338 47.4097C56.3791 48.716 57.0118 50.3858 57.2363 52.419C57.3838 53.7558 57.3214 54.9565 57.049 56.0213C56.7766 57.086 56.3371 58.0498 55.7305 58.9127C55.1322 59.7632 54.4062 60.5597 53.5523 61.3021C52.8845 61.876 52.3396 62.4592 51.9176 63.0516C51.5052 63.6428 51.2171 64.3 51.0532 65.023C50.9137 65.6242 50.8909 66.2328 50.9189 66.8423C50.9555 67.6394 50.4215 68.3503 49.6495 68.4355L46.2909 68.8063C45.5189 68.8915 44.8168 68.3181 44.7422 67.5236C44.6214 66.2362 44.5583 64.9405 44.7173 63.6588Z" fill="white"/>
</svg>
