<svg width="90" height="90" viewBox="0 0 90 90" fill="none" xmlns="http://www.w3.org/2000/svg">
<path fill-rule="evenodd" clip-rule="evenodd" d="M45.5 77C63.4493 77 78 62.4493 78 44.5C78 26.5507 63.4493 12 45.5 12C27.5507 12 13 26.5507 13 44.5C13 62.4493 27.5507 77 45.5 77ZM31.2571 58.7765C28.7571 60.6765 25.4571 60.5765 23.8571 58.4765C22.2571 56.3765 22.9571 53.1764 25.4571 51.1764C26.3181 50.5307 27.5 50.0961 28.4571 49.9765C29.2571 49.8765 31.9571 49.4765 31.9571 45.4765V32.4764C31.9571 31.3764 32.4571 30.0765 33.7571 29.6765L52.9571 26.0765C54.0571 25.7765 55.0571 26.3765 55.0571 27.5765V49.8764C55.0571 52.7765 53.8571 54.5765 52.5571 55.5765C50.0571 57.4765 46.7571 57.3764 45.1571 55.2765C43.5571 53.1765 44.2571 49.9765 46.7571 48.0765C47.6942 47.4517 49 47 49.8571 46.8764C49.9378 46.8664 50.0348 46.8603 50.144 46.8536C51.117 46.7932 53.0571 46.6729 53.0571 43.0765V34.6765L34.0571 38.2765V51.5765C34.0571 55.8764 32.2571 57.9765 31.2571 58.7765ZM66.6599 45.0877H69.0896C69.592 45.0877 69.9998 45.4992 70 46.0019C70.0002 46.5048 69.5925 46.916 69.0896 46.916H66.6599C66.2456 46.916 65.9099 47.2518 65.9099 47.666V50.0909C65.9099 50.5936 65.503 51.0013 65.0003 51.0013C64.7488 51.0013 64.5221 50.8993 64.3573 50.7346C64.1926 50.5702 64.0928 50.3425 64.0928 50.0909V47.6663C64.0928 47.252 63.757 46.9163 63.3428 46.9163H60.9091C60.658 46.9163 60.4306 46.8121 60.2659 46.6471C60.1013 46.4825 59.9998 46.2521 60 46.0008C59.9998 45.4977 60.4086 45.0899 60.9115 45.0899H63.3428C63.757 45.0899 64.0928 44.7541 64.0928 44.3399V41.9109C64.0928 41.4077 64.4983 41 65.0012 41C65.5041 41 65.9099 41.4077 65.9099 41.9106V44.3377C65.9099 44.7519 66.2456 45.0877 66.6599 45.0877Z" fill="white"/>
</svg>
