<svg width="120" height="120" viewBox="0 0 120 120" fill="none" xmlns="http://www.w3.org/2000/svg">
<path fill-rule="evenodd" clip-rule="evenodd" d="M92.9377 43.2493H27.4092C23.3318 43.2493 20 46.5812 20 50.6586V91.5908C20 95.6682 23.3318 99 27.4092 99H92.9377C97.0151 99 100.347 95.6682 100.347 91.5908V50.6586C100.347 46.5812 97.0151 43.2493 92.9377 43.2493ZM41.7272 86.3769C43.4666 89.2564 47.7749 89.8576 51.3499 87.7197C53.9791 86.1475 55.4795 83.5317 55.3976 81.1123L55.3973 81.105L55.3962 81.0746L55.3933 63.3625C55.3932 62.8581 55.7428 62.4349 56.2141 62.3198C56.3137 62.2954 56.4159 62.2838 56.5181 62.2722C56.5887 62.2641 56.6592 62.2561 56.7289 62.2439L69.0604 60.0853C69.2312 60.0554 69.4068 60.0302 69.5753 60.0713C70.0465 60.1865 70.396 60.6095 70.396 61.1139V74.129C68.3966 73.4422 65.8806 73.7098 63.6501 75.0437C60.075 77.1816 58.587 81.249 60.3264 84.1284C62.0659 87.0079 66.3741 87.6091 69.9492 85.4712C72.5783 83.899 74.0787 81.2833 73.9968 78.8639L73.9966 78.8566L73.9954 78.8262L73.9925 53.0733C73.9925 52.5876 73.668 52.1768 73.2225 52.0446C73.027 51.9866 72.8194 52.0202 72.6194 52.0602L53.1747 55.9562C53.0933 55.9725 53.0107 55.983 52.9281 55.9936C52.8081 56.009 52.6882 56.0244 52.5722 56.0572C52.1205 56.1853 51.7894 56.5991 51.7896 57.0901L51.7968 76.3774C49.7974 75.6907 47.2814 75.9583 45.0508 77.2922C41.4758 79.43 39.9877 83.4974 41.7272 86.3769Z" fill="white"/>
<path d="M88.442 30H31.7105C29.4344 30 27.5763 31.9459 27.5763 34.3297V39H92.5763V34.3297C92.5763 31.9529 90.7182 30 88.442 30Z" fill="white"/>
<path d="M80.4571 20H39.6954C37.4276 20 35.5763 21.4822 35.5763 23.2978V26H84.5763V23.2978C84.5763 21.4875 82.725 20 80.4571 20Z" fill="white"/>
</svg>
