<svg width="43" height="50" viewBox="0 0 43 50" fill="none" xmlns="http://www.w3.org/2000/svg">
<path d="M35.2375 16.9132C39.5894 19.5948 41.765 20.9355 42.5113 22.6524C43.1629 24.1514 43.1629 25.8486 42.5113 27.3479C41.765 29.0644 39.5894 30.4052 35.2375 33.087L14.7984 45.6823C9.96852 48.6585 7.55356 50.1468 5.56068 49.9886C3.82356 49.8509 2.23119 48.981 1.19209 47.6015C3.60316e-07 46.019 0 43.2111 0 37.5954V12.4048C0 6.78908 3.60316e-07 3.98125 1.19209 2.39871C2.23119 1.01927 3.82356 0.149096 5.56068 0.011384C7.55356 -0.146563 9.96852 1.3416 14.7984 4.31792L35.2375 16.9132Z" fill="white"/>
</svg>
