<svg width="120" height="120" viewBox="0 0 120 120" fill="none" xmlns="http://www.w3.org/2000/svg">
<path d="M85.5388 77.0581C83.0289 81.3271 81.0803 83.0782 77.0474 85.5504V85.5504L93.7315 102.238C93.8237 102.331 93.915 102.422 94.0055 102.514C96.2099 104.733 97.9719 106.506 102.239 102.238C106.498 97.9785 104.749 96.2411 102.528 94.0355C102.433 93.9408 102.336 93.8445 102.239 93.7478L85.5388 77.0581V77.0581Z" fill="white"/>
<path fill-rule="evenodd" clip-rule="evenodd" d="M83.5388 75.0581C80.8269 78.9789 78.9246 80.795 75.0474 83.5504C68.922 87.9649 61.3999 90.582 53.2842 90.582C32.7299 90.582 16 73.8664 16 53.291C16 32.7156 32.7299 16 53.2842 16C73.8384 16 90.5684 32.7156 90.5684 53.291C90.5684 61.4224 87.9517 68.9354 83.5388 75.0581ZM53.2842 86.582C34.9386 86.582 20 71.6568 20 53.291C20 34.9252 34.9386 20 53.2842 20C71.6298 20 86.5684 34.9252 86.5684 53.291C86.5684 61.7612 83.3907 69.4778 78.1818 75.3594L75.3481 78.1937C69.4677 83.4036 61.7363 86.582 53.2842 86.582ZM53.2842 82.5681C69.4185 82.5681 82.5553 69.4286 82.5553 53.291C82.5553 37.137 69.4185 24.0139 53.2842 24.0139C37.1499 24.0139 24.0131 37.1534 24.0131 53.291C24.0131 69.4286 37.1499 82.5681 53.2842 82.5681ZM44.5438 69.5736C40.9018 71.7625 36.5128 71.147 34.7408 68.1987C32.9688 65.2504 34.4847 61.0857 38.1267 58.8968C40.3991 57.531 42.9622 57.257 44.9991 57.9602L44.9917 38.2118C44.9916 37.7076 45.3308 37.2829 45.7931 37.1531C45.9091 37.1205 46.0289 37.1051 46.1488 37.0897L46.1488 37.0897L46.1489 37.0897C46.2325 37.0789 46.3162 37.0682 46.3986 37.0516L66.2161 33.0608C66.4169 33.0204 66.6256 32.9867 66.8221 33.0445C67.2781 33.1785 67.6107 33.6001 67.6107 34.099L67.6136 60.4675L67.6148 60.4986L67.6151 60.506C67.6985 62.9833 66.17 65.6616 63.4916 67.2714C59.8495 69.4604 55.4606 68.8448 53.6885 65.8965C51.9165 62.9482 53.4324 58.7836 57.0745 56.5946C59.3468 55.2288 61.9099 54.9548 63.9468 55.658V42.3317C63.9468 41.8141 63.589 41.38 63.1072 41.2634C62.9378 41.2224 62.7614 41.2478 62.5897 41.278L50.0201 43.4894C49.9494 43.5019 49.878 43.51 49.8065 43.5182C49.7044 43.5298 49.6023 43.5415 49.5026 43.5656C49.0208 43.6823 48.6629 44.1164 48.663 44.6341L48.6659 62.7697L48.6671 62.8008L48.6673 62.8082C48.7508 65.2855 47.2222 67.9638 44.5438 69.5736Z" fill="white"/>
</svg>
