<svg width="120" height="120" viewBox="0 0 120 120" fill="none" xmlns="http://www.w3.org/2000/svg">
<path fill-rule="evenodd" clip-rule="evenodd" d="M43.9919 87.8578L52.237 98.1593C53.8638 100.192 56.8255 100.521 58.8586 98.8937L94.9353 70.0218C100.255 65.7636 101.299 55.543 101.679 48.1201C98.8974 56.0863 94.4458 67.3014 87.1345 70.2808L43.9919 87.8578Z" fill="white"/>
<path fill-rule="evenodd" clip-rule="evenodd" d="M100.11 32.081C102.682 33.2485 103.894 36.2243 102.871 38.8562C102.486 39.845 102.045 41.1373 101.536 42.6276C98.8409 50.5228 94.249 63.9742 86.1345 67.2808L37.7901 86.9772C35.0655 88.0873 31.963 86.7806 30.8532 84.0565L17.0081 50.0793C15.9007 47.3617 17.2107 44.2501 19.9284 43.1429L68.2727 23.4463C76.3868 20.1403 89.0712 26.5515 96.5183 30.3155C97.9242 31.0261 99.1434 31.6423 100.11 32.081ZM50.7584 72.2418C48.3344 75.5228 44.2221 76.5534 41.5735 74.5438C38.9248 72.5341 38.7427 68.2452 41.1667 64.9642C42.679 62.9171 44.8486 61.7461 46.9099 61.6429L39.6736 43.9016C39.4502 43.354 39.7088 42.7317 40.25 42.5149L59.9611 34.2314C60.4977 34.0166 61.1096 34.2816 61.331 34.8246L70.2783 56.7763L70.2907 56.8039L70.2936 56.8105C71.2744 59.0062 70.9013 61.9642 69.1186 64.377C66.6946 67.658 62.5824 68.6886 59.9337 66.679C57.2851 64.6694 57.1029 60.3804 59.5269 57.0995C61.0393 55.0524 63.2089 53.8813 65.2702 53.7781L60.3915 41.8045C60.1693 41.2591 59.5533 40.9945 59.0157 41.2135L45.847 46.963C45.3093 47.1821 45.0537 47.8019 45.276 48.3473L51.918 64.6411L51.9304 64.6686L51.9334 64.6752C52.9142 66.8709 52.541 69.8289 50.7584 72.2418ZM98.648 36.2854C99.5858 38.587 98.4802 41.213 96.1786 42.1508C93.8771 43.0885 91.2511 41.983 90.3133 39.6814C89.3755 37.3798 90.4811 34.7538 92.7827 33.8161C95.0842 32.8783 97.7102 33.9839 98.648 36.2854Z" fill="white"/>
</svg>
